<svg width="441" height="503" fill="none" xmlns="http://www.w3.org/2000/svg"><path d="M281.766 290.239c1.611-6.299 8.183-40.249-27.519-71.136a24.016 24.016 0 00-10.078-5.186c-15.202-3.692-57.028-10.595-75.176 19.456a11.222 11.222 0 00-1.602 5.358c-.388 9.352.904 39.23 30.396 59.385 3.032 2.071 6.658 3.071 10.327 2.916 11.809-.509 37.322-4.918 35.194-33.726a10.582 10.582 0 00-1.49-4.676c-4.065-6.764-17.468-25.659-31.748-8.524a7.92 7.92 0 00-1.74 3.917c-.801 5.461-1.473 18.705 12.256 12.795 0 0 9.492-6.98 9.561-1.286 0 .578.017 1.156.086 1.734.491 4.176 1.249 20.983-18.932 17.799-19.621-3.097-29.905-18.446-30.542-36.832-.199-5.798 2.704-11.259 7.683-14.218 14.435-8.585 46.658-25.228 58.053-10.431.517.673 1.111 1.285 1.706 1.889 5.391 5.462 27.476 30.068 20.801 60.757-7.02 32.251-68.106 32.665-78.984 28.006-1.551-.664-3.127-1.251-4.772-1.588-7.89-1.604-28.346-10.224-36.184-56.141-9.018-52.828 27.691-61.421 45.461-65.286a44.994 44.994 0 007.002-2.131c8.949-3.563 37.227-12.787 56.073 3.753.568.5 1.292 1.354 1.808 1.915 5.177 5.591 34.988 38.722 36.822 56.228 0 0 3.971 25.063-10.508 38.402 0 0-4.1 5.418-4.246-.466-.026-.906.112-1.803.336-2.675l-.044-.008zM205.737 176.904l24.978-.656a1.113 1.113 0 001.086-1.156l-.422-12.933a14.06 14.06 0 011.317-6.462c3.075-6.548 9.199-23.2-1.378-34.813-13.428-14.736-4.436-37.263-4.436-37.263s6.659-14.625-1.283-28.49c0 0 2.687 20.414-3.273 25.09-5.96 4.676-14.246 22.985-6.951 37.082 0 0 8.743 20.673-3.962 36.41a7.99 7.99 0 01-.784.837c-1.197 1.121-4.875 4.969-5.116 9.965-.233 4.736-.431 9.766-.5 11.639a.714.714 0 00.732.742l-.008.008zM283.549 208.413l-16.925-18.412a1.122 1.122 0 01.069-1.587l9.561-8.697a14.115 14.115 0 003.712-5.453c2.55-6.773 10.216-22.769 25.9-23.252 19.914-.612 29.785-22.76 29.785-22.76s5.84-14.969 21.301-18.912c0 0-16.495 12.286-15.702 19.827.792 7.54-6.546 26.254-21.732 30.818 0 0-20.904 8.11-23.324 28.204-.043.38-.061.768-.052 1.148.026 1.639-.164 6.962-3.575 10.621a1006.968 1006.968 0 01-7.993 8.463.713.713 0 01-1.042-.008h.017zM308.244 269.187l.732-25.021a1.113 1.113 0 011.154-1.087l12.911.466a14.035 14.035 0 006.46-1.303c6.555-3.062 23.196-9.136 34.746 1.502 14.669 13.502 37.184 4.564 37.184 4.564s14.617-6.618 28.432 1.38c0 0-20.37-2.761-25.064 3.193-4.695 5.953-22.998 14.192-37.046 6.841 0 0-20.612-8.826-36.357 3.848a8.084 8.084 0 00-.835.785c-1.12 1.191-4.979 4.867-9.966 5.091-4.728.216-9.75.397-11.619.457a.701.701 0 01-.732-.733v.017zM267.71 323.879l19.827-15.22a1.118 1.118 0 011.577.216l7.786 10.327a14 14 0 005.082 4.193c6.503 3.158 21.714 12.252 20.775 27.937-1.189 19.922 19.94 31.768 19.94 31.768s14.358 7.178 16.882 22.958c0 0-10.724-17.566-18.295-17.454-7.571.112-25.512-8.904-28.682-24.46 0 0-6.176-21.586-25.935-25.814a8.529 8.529 0 00-1.137-.155c-1.627-.121-6.907-.794-10.232-4.521-3.153-3.538-6.46-7.325-7.692-8.74a.715.715 0 01.104-1.035zM149.147 303.362l16.9 18.437a1.123 1.123 0 01-.069 1.588l-9.578 8.688a14.094 14.094 0 00-3.721 5.444c-2.558 6.773-10.25 22.751-25.935 23.209-19.914.578-29.82 22.717-29.82 22.717s-5.865 14.96-21.334 18.886c0 0 16.511-12.26 15.728-19.801-.784-7.541 6.589-26.246 21.774-30.792 0 0 20.913-8.076 23.368-28.17.043-.38.06-.768.052-1.148-.026-1.639.172-6.962 3.591-10.612 3.239-3.46 6.71-7.1 8.011-8.455a.713.713 0 011.042.009h-.009zM136.632 241.587l-1.395 24.986a1.115 1.115 0 01-1.189 1.052l-12.894-.811a14.054 14.054 0 00-6.486 1.131c-6.632 2.89-23.428 8.515-34.694-2.416-14.306-13.882-37.046-5.548-37.046-5.548S28.14 266.21 14.54 257.85c0 0 20.293 3.296 25.134-2.528 4.849-5.824 23.359-13.58 37.209-5.858 0 0 20.37 9.37 36.443-2.89.301-.233.585-.492.861-.76 1.154-1.164 5.099-4.736 10.095-4.831 4.737-.095 9.759-.138 11.628-.156.413 0 .741.345.715.751l.008.009zM175.677 182.435l-19.665 15.435a1.122 1.122 0 01-1.576-.199l-7.898-10.241a13.994 13.994 0 00-5.125-4.141c-6.538-3.089-21.843-12.019-21.077-27.713.973-19.93-20.275-31.552-20.275-31.552s-14.436-7.023-17.132-22.777c0 0 10.913 17.445 18.484 17.256 7.571-.199 25.607 8.627 28.94 24.149 0 0 6.409 21.518 26.211 25.529.379.078.758.121 1.137.147 1.636.104 6.916.716 10.284 4.409a959.917 959.917 0 017.786 8.654.708.708 0 01-.094 1.035v.009zM229.552 333.956l-24.978.656a1.114 1.114 0 00-1.086 1.156l.423 12.933a14.074 14.074 0 01-1.318 6.462c-3.075 6.548-9.199 23.2 1.378 34.813 13.428 14.736 4.436 37.263 4.436 37.263s-6.658 14.625 1.283 28.489c0 0-2.687-20.413 3.273-25.089 5.96-4.676 14.246-22.985 6.951-37.082 0 0-8.742-20.673 3.962-36.41a7.99 7.99 0 01.784-.837c1.197-1.121 4.875-4.969 5.116-9.965.233-4.736.431-9.766.5-11.639a.714.714 0 00-.732-.742l.008-.008zM181.129 180.519l16.985-2.286a.998.998 0 00.87-1.001c-.017-2.355-.559-8.852-5.762-12.536 0 0-14.582-10.664-10.25-25.711 3.902-13.546-7.485-23.14-9.802-24.926a6.436 6.436 0 01-1.016-.983c-1.507-1.821-5.263-7.256-5.125-16.203 0 0-3.282 13.908 4.376 21.276 7.657 7.368 1.49 25.271 1.49 25.271s-6.925 14.123 4.763 24.442c.611.535 1.145 1.156 1.524 1.881.845 1.648 1.938 4.901 1.301 10.138-.043.371.267.69.629.638h.017zM136.408 224.461l6.452-15.91c.189-.466 0-1.01-.431-1.251-2.05-1.156-7.95-3.909-13.721-1.217 0 0-16.477 7.386-27.364-3.856-9.794-10.121-23.773-4.987-26.47-3.857-.438.181-.886.311-1.36.397-2.326.405-8.906.975-16.59-3.598 0 0 10.423 9.767 20.612 6.756 10.19-3.011 22.636 11.259 22.636 11.259s8.803 13.037 23.54 7.998c.767-.268 1.576-.423 2.386-.388 1.843.077 5.202.75 9.432 3.908a.57.57 0 00.87-.233l.008-.008zM138.855 295.778l-3.782-16.747a.998.998 0 00-1.076-.776c-2.343.224-8.751 1.346-11.956 6.859 0 0-9.302 15.495-24.65 12.51-13.817-2.692-22.344 9.525-23.911 11.993a6.793 6.793 0 01-.888 1.104c-1.67 1.665-6.752 5.893-15.658 6.549 0 0 14.117 2.044 20.766-6.264 6.65-8.309 24.996-3.736 24.996-3.736s14.66 5.651 23.876-6.928c.482-.656 1.051-1.251 1.74-1.683 1.559-.992 4.703-2.364 9.965-2.2.371.009.664-.327.578-.69v.009zM188.175 336.035l-15.134-8.067a.997.997 0 00-1.292.302c-1.361 1.924-4.703 7.515-2.618 13.546 0 0 5.641 17.178-6.65 26.867-11.059 8.722-7.398 23.174-6.554 25.969.137.458.224.915.249 1.389.164 2.356.052 8.973-5.28 16.16 0 0 10.767-9.378 8.829-19.844-1.938-10.465 13.506-21.397 13.506-21.397s13.85-7.428 10.361-22.639c-.18-.794-.258-1.613-.137-2.424.267-1.829 1.283-5.108 4.849-8.999a.567.567 0 00-.146-.889l.017.026zM258.381 330.513l-16.779 3.503a1.006 1.006 0 00-.801 1.061c.19 2.347 1.189 8.792 6.65 12.088 0 0 15.314 9.577 12.067 24.9-2.92 13.787 9.13 22.544 11.568 24.158.396.258.758.56 1.085.905 1.636 1.709 5.771 6.86 6.279 15.798 0 0 2.274-14.107-5.9-20.905-8.174-6.799-3.299-25.098-3.299-25.098s5.891-14.59-6.512-24.029c-.646-.492-1.231-1.078-1.653-1.769-.965-1.578-2.283-4.745-2.025-10.025a.565.565 0 00-.68-.587zM306.857 284.122l-8.243 15.055a1.005 1.005 0 00.284 1.294c1.904 1.389 7.442 4.806 13.488 2.796 0 0 17.218-5.427 26.736 6.997 8.562 11.181 23.032 7.704 25.84 6.893a6.407 6.407 0 011.395-.233c2.36-.138 8.958.069 16.064 5.488 0 0-9.225-10.906-19.69-9.103-10.465 1.804-21.189-13.795-21.189-13.795s-7.235-13.969-22.463-10.664c-.792.172-1.611.233-2.42.112-1.826-.294-5.082-1.346-8.924-4.97a.563.563 0 00-.887.13h.009zM293.118 210.639l5.831 16.142a1 1 0 001.163.639c2.3-.518 8.519-2.425 11.008-8.3 0 0 7.304-16.54 22.911-15.487 14.04.949 20.991-12.234 22.24-14.883a6.71 6.71 0 01.74-1.208c1.456-1.863 5.969-6.695 14.729-8.455 0 0-14.263-.267-19.828 8.8-5.564 9.068-24.341 6.816-24.341 6.816s-15.254-3.787-22.834 9.845c-.396.716-.887 1.371-1.516 1.889-1.421 1.182-4.366 2.934-9.621 3.425a.572.572 0 00-.491.751l.009.026zM242.456 174.816l15.228 7.886a.998.998 0 001.283-.319c1.335-1.941 4.617-7.567 2.464-13.58 0 0-5.84-17.109 6.33-26.945 10.956-8.852 7.124-23.252 6.245-26.047a5.913 5.913 0 01-.267-1.389c-.19-2.356-.155-8.973 5.09-16.22 0 0-10.654 9.499-8.596 19.947 2.059 10.448-13.255 21.552-13.255 21.552s-13.764 7.593-10.095 22.752c.189.793.275 1.613.163 2.415-.249 1.838-1.223 5.125-4.746 9.051a.569.569 0 00.156.889v.008z" fill="#BF2B53" stroke="#BF2B53" stroke-miterlimit="10"/></svg>